PathFileType	4	(X/Y/Z)	A:\Common\BMMB\PROJECTS\STRATO\DataSTRATO\DataSTRATO\0021~016 ID\0021~aa~ID 016\Standing_STRATO_ID_16.trc
DataRate	CameraRate	NumFrames	NumMarkers	Units	OrigDataRate	OrigDataStartFrame	OrigNumFrames
250.00	250.00	6	22	mm	250.00	276	3281
Frame#	Time	r.should			l.should			c7			r.asis			l.asis			sacrum			r.bar1			l.bar1			r.knee1			l.knee1			r.bar2			r.mall			l.bar2			l.mall			r.met			r.heel			l.heel			l.met			r.mallm			l.mallm			r.kneem			l.kneem			
		X1	Y1	Z1	X2	Y2	Z2	X3	Y3	Z3	X4	Y4	Z4	X5	Y5	Z5	X6	Y6	Z6	X7	Y7	Z7	X8	Y8	Z8	X9	Y9	Z9	X10	Y10	Z10	X11	Y11	Z11	X12	Y12	Z12	X13	Y13	Z13	X14	Y14	Z14	X15	Y15	Z15	X16	Y16	Z16	X17	Y17	Z17	X18	Y18	Z18	X19	Y19	Z19	X20	Y20	Z20	X21	Y21	Z21	X22	Y22	Z22	

275	1.100000	337.940931	1331.934333	300.228864	40.557824	1346.990585	296.183288	198.515385	1389.628649	382.175446	297.294378	889.666378	149.829820	56.894548	877.646148	168.838590	193.347231	952.786863	382.404894	392.421812	815.382957	237.054676	-10.501643	791.795313	267.007709	351.886332	465.303540	279.800415	14.098891	468.163192	353.091776	338.154197	414.023757	275.124550	328.403026	70.365749	304.927021	11.238033	424.188852	362.724900	49.056187	52.593425	338.233829	295.177341	36.713284	163.553759	286.505461	37.072413	362.682790	96.128888	32.020345	401.183784	75.720780	36.065951	196.380705	243.696719	78.643233	299.277782	129.813105	79.366386	329.810590	208.442301	440.740764	322.115719	161.166728	445.520401	361.086756	
276	1.104000	337.931871	1331.927657	300.225139	40.557627	1346.986771	296.175718	198.525503	1389.627337	382.171124	297.296941	889.676750	149.808422	56.902543	877.653837	168.840423	193.344668	952.792406	382.425249	392.425925	815.372109	237.084866	-10.506293	791.811049	266.994327	351.892591	465.293229	279.800296	14.108541	468.163759	353.092313	338.152647	414.018840	275.138170	328.396469	70.356011	304.932207	11.241256	424.189031	362.736642	49.066186	52.584931	338.245094	295.173794	36.677349	163.554519	286.504865	37.080824	362.703085	96.133530	32.011561	401.163697	75.703695	36.029432	196.373791	243.689999	78.630149	299.287289	129.791170	79.326347	329.793155	208.453059	440.743357	322.117984	161.167353	445.520908	361.093998	
277	1.108000	337.941706	1331.921339	300.240904	40.557429	1346.992493	296.177745	198.506013	1389.634848	382.176191	297.297984	889.680982	149.818525	56.903895	877.661049	168.851703	193.344891	952.795088	382.451385	392.427593	815.376401	237.094253	-10.494134	791.820228	266.997188	351.885080	465.285122	279.815257	14.090053	468.162447	353.171200	338.158309	414.015949	275.145411	328.390181	70.347227	304.931581	11.244730	424.194187	362.741053	49.060740	52.598808	338.245988	295.183629	36.688589	163.555920	286.510020	37.093714	362.714648	96.139863	32.006230	401.159823	75.698644	36.024138	196.423724	243.680120	78.639530	299.292654	129.799679	79.319909	329.841912	208.452046	440.748453	322.131991	161.167741	445.528269	361.115336	
278	1.112000	337.947547	1331.924081	300.259233	40.540062	1346.972823	296.203762	198.497251	1389.634967	382.194310	297.312796	889.675975	149.850309	56.912642	877.670169	168.823913	193.358541	952.792048	382.470429	392.437637	815.381169	237.101838	-10.491617	791.807055	267.032504	351.885647	465.296686	279.825449	14.111113	468.162358	353.201091	338.161558	414.022833	275.130749	328.393281	70.347644	304.922998	11.245699	424.201101	362.750232	49.034245	52.618109	338.230610	295.197546	36.706589	163.557202	286.513209	37.096567	362.745166	96.144840	32.008842	401.185811	75.698648	36.063932	196.420074	243.679821	78.649171	299.291849	129.815966	79.329073	329.831541	208.456710	440.747976	322.139144	161.164239	445.535868	361.126900	
279	1.116000	337.944686	1331.931114	300.257504	40.543243	1346.961498	296.244979	198.506296	1389.629006	382.195055	297.307968	889.660478	149.883762	56.917384	877.656758	168.842912	193.361044	952.796340	382.470250	392.438382	815.374970	237.132117	-10.490619	791.806936	267.042577	351.902753	465.297639	279.828757	14.099628	468.170106	353.240430	338.167936	414.022148	275.118113	328.399092	70.346363	304.920495	11.237731	424.203843	362.760812	49.028043	52.615762	338.256955	295.188963	36.704570	163.539216	286.517859	37.097827	362.759531	96.151888	32.009207	401.189089	75.702317	36.104493	196.377128	243.690193	78.650117	299.292266	129.807591	79.340063	329.802692	208.460718	440.751523	322.128683	161.165491	445.529372	361.135185	
280	1.120000	337.954730	1331.925392	300.269812	40.559195	1346.944451	296.246052	198.510706	1389.636636	382.183403	297.323883	889.661670	149.899676	56.917988	877.677858	168.845594	193.367064	952.795684	382.480949	392.448545	815.377533	237.141863	-10.482542	791.797876	267.018259	351.905346	465.291083	279.831320	14.099735	468.154788	353.249818	338.182688	414.020449	275.145233	328.403801	70.345864	304.925501	11.239953	424.188673	362.765282	49.023256	52.606985	338.247299	295.188487	36.699340	163.548440	286.519706	37.089281	362.706244	96.142724	32.000344	401.193708	75.711412	36.102735	196.344331	243.691027	78.637466	299.285740	129.805803	79.352856	329.807073	208.453551	440.760374	322.132379	161.175683	445.525408	361.151934	
